<mxfile host="app.diagrams.net" agent="Mozilla/5.0 (Windows NT 10.0; Win64; x64) AppleWebKit/537.36 (KHTML, like Gecko) Chrome/133.0.0.0 Safari/537.36" version="26.1.0">
  <diagram name="Página-1" id="KkubuNQwKQWUB5YfPVbF">
    <mxGraphModel grid="1" page="1" gridSize="10" guides="1" tooltips="1" connect="1" arrows="1" fold="1" pageScale="1" pageWidth="827" pageHeight="1169" math="0" shadow="0">
      <root>
        <mxCell id="0" />
        <mxCell id="1" parent="0" />
        <mxCell id="HnNa0JBuEI1SDndNhTzj-1" value="Inicio" style="html=1;dashed=0;whiteSpace=wrap;shape=mxgraph.dfd.start" vertex="1" parent="1">
          <mxGeometry x="160" y="130" width="80" height="30" as="geometry" />
        </mxCell>
        <mxCell id="HnNa0JBuEI1SDndNhTzj-2" value="Fim" style="html=1;dashed=0;whiteSpace=wrap;shape=mxgraph.dfd.start" vertex="1" parent="1">
          <mxGeometry x="610" y="300" width="80" height="30" as="geometry" />
        </mxCell>
        <mxCell id="HnNa0JBuEI1SDndNhTzj-9" style="edgeStyle=orthogonalEdgeStyle;rounded=0;orthogonalLoop=1;jettySize=auto;html=1;" edge="1" parent="1" source="HnNa0JBuEI1SDndNhTzj-4" target="HnNa0JBuEI1SDndNhTzj-7">
          <mxGeometry relative="1" as="geometry" />
        </mxCell>
        <mxCell id="HnNa0JBuEI1SDndNhTzj-4" value="Numero" style="html=1;strokeWidth=2;shape=manualInput;whiteSpace=wrap;rounded=1;size=13;arcSize=11;" vertex="1" parent="1">
          <mxGeometry x="160" y="190" width="100" height="50" as="geometry" />
        </mxCell>
        <mxCell id="HnNa0JBuEI1SDndNhTzj-11" style="edgeStyle=orthogonalEdgeStyle;rounded=0;orthogonalLoop=1;jettySize=auto;html=1;" edge="1" parent="1" source="HnNa0JBuEI1SDndNhTzj-7" target="HnNa0JBuEI1SDndNhTzj-10">
          <mxGeometry relative="1" as="geometry" />
        </mxCell>
        <mxCell id="HnNa0JBuEI1SDndNhTzj-7" value="Somar o numero" style="rounded=1;whiteSpace=wrap;html=1;absoluteArcSize=1;arcSize=14;strokeWidth=2;" vertex="1" parent="1">
          <mxGeometry x="300" y="195" width="100" height="40" as="geometry" />
        </mxCell>
        <mxCell id="HnNa0JBuEI1SDndNhTzj-15" style="edgeStyle=orthogonalEdgeStyle;rounded=0;orthogonalLoop=1;jettySize=auto;html=1;entryX=0.5;entryY=1;entryDx=0;entryDy=0;" edge="1" parent="1" source="HnNa0JBuEI1SDndNhTzj-10" target="HnNa0JBuEI1SDndNhTzj-4">
          <mxGeometry relative="1" as="geometry">
            <Array as="points">
              <mxPoint x="510" y="278" />
              <mxPoint x="210" y="278" />
            </Array>
          </mxGeometry>
        </mxCell>
        <mxCell id="HnNa0JBuEI1SDndNhTzj-17" value="&lt;b&gt;&lt;font style=&quot;font-size: 13px;&quot;&gt;NÃO&lt;/font&gt;&lt;/b&gt;" style="edgeLabel;html=1;align=center;verticalAlign=middle;resizable=0;points=[];" connectable="0" vertex="1" parent="HnNa0JBuEI1SDndNhTzj-15">
          <mxGeometry x="-0.0237" y="2" relative="1" as="geometry">
            <mxPoint as="offset" />
          </mxGeometry>
        </mxCell>
        <mxCell id="HnNa0JBuEI1SDndNhTzj-10" value="Numero = 0" style="strokeWidth=2;html=1;shape=mxgraph.flowchart.decision;whiteSpace=wrap;" vertex="1" parent="1">
          <mxGeometry x="460" y="172.5" width="100" height="85" as="geometry" />
        </mxCell>
        <mxCell id="HnNa0JBuEI1SDndNhTzj-16" style="edgeStyle=orthogonalEdgeStyle;rounded=0;orthogonalLoop=1;jettySize=auto;html=1;" edge="1" parent="1" source="HnNa0JBuEI1SDndNhTzj-12" target="HnNa0JBuEI1SDndNhTzj-2">
          <mxGeometry relative="1" as="geometry" />
        </mxCell>
        <mxCell id="HnNa0JBuEI1SDndNhTzj-12" value="Soma dos&amp;nbsp;&lt;div&gt;Numeros&lt;/div&gt;" style="shape=parallelogram;perimeter=parallelogramPerimeter;whiteSpace=wrap;html=1;dashed=0;" vertex="1" parent="1">
          <mxGeometry x="600" y="185" width="100" height="50" as="geometry" />
        </mxCell>
        <mxCell id="HnNa0JBuEI1SDndNhTzj-13" style="edgeStyle=orthogonalEdgeStyle;rounded=0;orthogonalLoop=1;jettySize=auto;html=1;entryX=0.077;entryY=0.596;entryDx=0;entryDy=0;entryPerimeter=0;" edge="1" parent="1" source="HnNa0JBuEI1SDndNhTzj-10" target="HnNa0JBuEI1SDndNhTzj-12">
          <mxGeometry relative="1" as="geometry" />
        </mxCell>
        <mxCell id="HnNa0JBuEI1SDndNhTzj-14" value="&lt;b&gt;&lt;font style=&quot;font-size: 13px;&quot;&gt;SIM&lt;/font&gt;&lt;/b&gt;" style="edgeLabel;html=1;align=center;verticalAlign=middle;resizable=0;points=[];" connectable="0" vertex="1" parent="HnNa0JBuEI1SDndNhTzj-13">
          <mxGeometry x="-0.1649" y="-1" relative="1" as="geometry">
            <mxPoint x="-2" y="1" as="offset" />
          </mxGeometry>
        </mxCell>
        <mxCell id="HnNa0JBuEI1SDndNhTzj-18" style="edgeStyle=orthogonalEdgeStyle;rounded=0;orthogonalLoop=1;jettySize=auto;html=1;entryX=0.403;entryY=0.203;entryDx=0;entryDy=0;entryPerimeter=0;" edge="1" parent="1" source="HnNa0JBuEI1SDndNhTzj-1" target="HnNa0JBuEI1SDndNhTzj-4">
          <mxGeometry relative="1" as="geometry" />
        </mxCell>
      </root>
    </mxGraphModel>
  </diagram>
</mxfile>
